<svg xmlns="http://www.w3.org/2000/svg" viewBox="0 0 662.63 250.3"><defs><style>.cls-1,.cls-2,.cls-3,.cls-4{fill:#fff;}.cls-2,.cls-3,.cls-4{stroke:#fff;stroke-linecap:round;stroke-width:3px;}.cls-2{stroke-miterlimit:10;}.cls-4{stroke-miterlimit:6;}</style></defs><g id="Layer_2" data-name="Layer 2"><g id="Layer_1-2" data-name="Layer 1"><polygon class="cls-1" points="137.73 142.95 120.22 142.95 112.07 161.99 186.16 161.99 194.49 142.53 176.77 142.53 228.68 21.18 246.4 21.18 254.46 2.34 180.36 2.34 172.31 21.18 189.82 21.18 137.73 142.95"/><path class="cls-1" d="M250.83,45.21,200.88,162h34.58l33-77.26c7.6-5.72,14.22-10.59,21.28-10.59,1,0,2.28.15,2.73.84,1.34,2-1.32,8.23-2.31,10.54L257.5,162h34.57l35.59-83.18c2.72-6.36,8.38-19.59,2.54-28.44-3.28-5-9.52-7.47-18.55-7.47-12.74,0-25.14,7.94-34.19,15.67l5.71-13.36Z"/><polygon class="cls-1" points="349.73 161.99 418.03 2.34 383.45 2.34 315.15 161.99 349.73 161.99"/><polygon class="cls-1" points="475.62 1.5 441.65 1.5 428.56 32.11 462.53 32.11 475.62 1.5"/><polygon class="cls-1" points="406.97 161.99 456.92 45.22 422.95 45.22 373 161.99 406.97 161.99"/><path class="cls-1" d="M519.36,74.14c1,0,2.27.15,2.73.84,1.33,2-1.32,8.22-2.32,10.54L487.06,162h34.58l35.58-83.18c2.72-6.36,8.38-19.59,2.54-28.44-3.27-5-9.51-7.47-18.55-7.47-12.73,0-25.13,7.94-34.18,15.67l5.71-13.36H480.4L430.44,162H465l33.05-77.26C505.68,79,512.29,74.14,519.36,74.14Z"/><path class="cls-1" d="M660.49,59.94c-2.63-12-11.47-17.87-27-17.87-16.52,0-30.53,5.56-41.63,16.52-13,12.77-21,31.36-29.41,51.11-.5,1.17-5.57,14.52-7,22.86-1.66,9.5-.2,17,4.33,22.41,5.28,6.28,14.33,9.34,27.64,9.34,14.38,0,25-3.36,37.4-7.24l2.15-.68,8.44-29.07-5.19,2.17c-16.09,6.71-23.37,8-31.19,8-4.55,0-7.56-1.09-8.95-3.22-3.15-4.85,1.08-15.28,4-21.87h49.37l1.8-.06.7-1.63C658.31,81.55,663,70.64,660.49,59.94ZM625,66.15c3,0,4.86.61,5.65,1.81,2.26,3.42-1.75,13.29-5.64,22.44H603.35C608.42,78.35,614.45,66.15,625,66.15Z"/><polygon class="cls-1" points="66.97 228.07 118.88 106.73 136.6 106.73 144.66 87.89 70.57 87.89 62.51 106.73 80.02 106.73 27.94 228.49 10.42 228.49 2.27 247.54 76.37 247.54 84.7 228.07 66.97 228.07"/><path class="cls-1" d="M143.46,197.43c-1.75-2.65-5-4-9.58-4a22.24,22.24,0,0,0-11.53,3.8l1.2-2.81H106L83.25,247.54h18.58l14.4-33.64c2.79-2.06,3.77-3,6.47-3.15-.11.57,1.09.65.56,1.88l-14.93,34.91h18.58L142.55,211C143.71,208.26,146.42,201.92,143.46,197.43Z"/><path class="cls-1" d="M186.71,176.06l-8.86,20.73c-1.69-2-4.58-3.71-9.63-3.71-6.89,0-13.21,3.67-17.3,10-3,4.6-5.33,10-9.18,19a88.77,88.77,0,0,0-4.45,12c-.77,3.1-1.16,7.46,1.36,10.68,1.8,2.3,4.64,3.47,8.46,3.47a20,20,0,0,0,10.91-3l-1,2.3h17.77l30.57-71.48ZM157.14,231.7a5.56,5.56,0,0,1,.23-1.45c.45-1.63,1.93-5.08,4.39-10.82,3.47-8.13,4.94-11,7.78-11a4,4,0,0,1,2.74,1.34L164.08,229c-1.57,1.13-4,2.73-6.52,2.73h-.42Z"/><path class="cls-1" d="M229.19,194.43l-14.45,33.8a19.39,19.39,0,0,1-4.55,2.91,12.72,12.72,0,0,1-3.38,1,11.41,11.41,0,0,1,.9-2.87l14.9-34.81H204.12l-16.18,37.83c-.86,2-3.46,8.09-.54,12.5,1.73,2.62,4.89,4,9.4,4a21.81,21.81,0,0,0,11.78-3.57l-1,2.4H225l22.72-53.11Z"/><path class="cls-1" d="M302.25,232.16a27.14,27.14,0,0,1-3.37.26,11.92,11.92,0,0,1-2.16-.16l.06-.13L306.67,209h9.2l6.23-14.57h-9.2l7.4-17.29H301.9l-7.4,17.29h-7.12L285,200l-.64-.86c-2.13-2.86-7.56-6-14.43-6a24.34,24.34,0,0,0-11.82,2.61,27.28,27.28,0,0,0-13.38,13.8c-4.51,10.53,1.62,15.9,9.18,20.29.91.54,2.05,1.22,2.2,1.25a1.89,1.89,0,0,1-.17.52,4.67,4.67,0,0,1-4.3,2.59c-3.11,0-4.08-1.51-5.41-4l-1.65-3.05-13.77,12.68,1.55,2c1.64,2.09,5.5,7,15.63,7,6.23,0,19.52-3.52,25.22-16.85,5.4-12.64-3.64-17.71-8.53-20.46-.88-.47-2.71-1.45-2.85-2.05.55-1.29,2-2.06,4-2.06s2.93.41,5.77,3.12l1.8,1.73L283.72,203l-2.57,6h7.12l-9.52,22.27c-2.28,5.32-2.42,9.36-.44,12.37,2.93,4.44,9.37,4.44,12.12,4.44a50.36,50.36,0,0,0,6.9-.59l2.85-.33,6.6-15.44Z"/><path class="cls-1" d="M348.92,215l9.42-22-4.25.16a21.22,21.22,0,0,0-12.31,4.41l1.34-3.14H325.17l-22.72,53.11h18.76l12.42-29c5.84-3.47,8.62-3.47,13.52-3.47Z"/><polygon class="cls-1" points="360.67 193.47 337.54 247.54 355.85 247.54 378.99 193.47 360.67 193.47"/><polygon class="cls-1" points="361.83 190.78 380.13 190.78 387.15 174.37 368.85 174.37 361.83 190.78"/><path class="cls-1" d="M400.83,230.64c-6.86,2.79-9.94,3.32-13.21,3.32-1.44,0-2.48-.28-2.78-.75-.8-1.22.43-4.65,1.39-6.92h22.65l.7-1.64c5.5-12.86,7.55-17.67,6.26-22.75-1.4-5.85-5.95-8.82-13.53-8.82s-14.24,2.53-19.37,7.5c-5.93,5.71-9.39,13.82-13.06,22.39a66.67,66.67,0,0,0-3.09,10.18c-.74,4.46,0,8.07,2.28,10.72,2.66,3.14,7.09,4.66,13.54,4.66s11.41-1.47,17.29-3.27l1.4-.43L406,228.56Zm-2.13-24.16a4.44,4.44,0,0,1,1.3.13c.49,1-1,4.48-2.11,7.18h-6.3C393.63,209.36,395.64,206.48,398.7,206.48Z"/><path class="cls-1" d="M440.81,207.38c1.94,0,2.93.41,5.77,3.12l1.8,1.73,12.46-11.14-1.47-2c-2.13-2.86-7.56-6-14.43-6a24.29,24.29,0,0,0-11.81,2.61,27.32,27.32,0,0,0-13.4,13.8c-4.5,10.53,1.63,15.9,9.19,20.29.91.54,2.05,1.22,2.2,1.25a2.55,2.55,0,0,1-.17.52,4.68,4.68,0,0,1-4.3,2.59c-3.11,0-4.08-1.51-5.41-4l-1.65-3.05-13.77,12.68,1.55,2c1.64,2.09,5.5,7,15.63,7,6.23,0,19.52-3.52,25.22-16.85,5.4-12.64-3.64-17.71-8.53-20.46-.88-.47-2.71-1.45-2.85-2.05C437.38,208.15,438.87,207.38,440.81,207.38Z"/><polygon class="cls-1" points="519.79 176.06 499.29 176.06 468.71 247.54 518.03 247.54 525.61 229.82 496.8 229.82 519.79 176.06"/><path class="cls-1" d="M555.59,209h8.9l6.23-14.57h-8.9l7.39-17.29h-18l-7.39,17.29h-6.9L530.69,209h6.89l-9.52,22.27c-2.31,5.39-2.46,9.47-.48,12.47,2.86,4.34,9,4.34,11.69,4.34a47.71,47.71,0,0,0,6.72-.59l2.8-.34,6.6-15.44-4.54.46a26.45,26.45,0,0,1-3.25.25,11.56,11.56,0,0,1-2-.14l.06-.15Z"/><path class="cls-1" d="M608.16,176.06l-8.81,20.62c-1.64-2-4.43-3.6-9.26-3.6-6.72,0-12.9,3.67-17,10.06-3,4.59-5.28,10-9.14,19a89.59,89.59,0,0,0-4.46,11.94c-.81,3.14-1.24,7.56,1.26,10.78,1.75,2.25,4.5,3.39,8.16,3.39a19.07,19.07,0,0,0,10.42-2.88l-.92,2.16h17.39l30.57-71.48ZM579,231.7a5.91,5.91,0,0,1,.24-1.44c.46-1.63,1.94-5.09,4.4-10.83,3.25-7.6,4.81-11,7.63-11a3.66,3.66,0,0,1,2.52,1.3L585.53,229c-1.53,1.13-3.93,2.72-6.29,2.72H579Z"/><polygon class="cls-1" points="604.2 247.54 623.42 247.54 631.78 228.01 612.55 228.01 604.2 247.54"/><polygon class="cls-2" points="137.73 142.95 120.22 142.95 112.07 161.99 186.16 161.99 194.49 142.53 176.77 142.53 228.68 21.18 246.4 21.18 254.46 2.34 180.36 2.34 172.31 21.18 189.82 21.18 137.73 142.95"/><path class="cls-2" d="M250.83,45.21,200.88,162h34.58l33-77.26c7.6-5.72,14.22-10.59,21.28-10.59,1,0,2.28.15,2.73.84,1.34,2-1.32,8.23-2.31,10.54L257.5,162h34.57l35.59-83.18c2.72-6.36,8.38-19.59,2.54-28.44-3.28-5-9.52-7.47-18.55-7.47-12.74,0-25.14,7.94-34.19,15.67l5.71-13.36Z"/><polygon class="cls-2" points="349.73 161.99 418.03 2.34 383.45 2.34 315.15 161.99 349.73 161.99"/><polygon class="cls-2" points="475.62 1.5 441.65 1.5 428.56 32.11 462.53 32.11 475.62 1.5"/><polygon class="cls-2" points="406.97 161.99 456.92 45.22 422.95 45.22 373 161.99 406.97 161.99"/><path class="cls-2" d="M519.36,74.14c1,0,2.27.15,2.73.84,1.33,2-1.32,8.22-2.32,10.54L487.06,162h34.58l35.58-83.18c2.72-6.36,8.38-19.59,2.54-28.44-3.27-5-9.51-7.47-18.55-7.47-12.73,0-25.13,7.94-34.18,15.67l5.71-13.36H480.4L430.44,162H465l33.05-77.26C505.68,79,512.29,74.14,519.36,74.14Z"/><path class="cls-2" d="M660.49,59.94c-2.63-12-11.47-17.87-27-17.87-16.52,0-30.53,5.56-41.63,16.52-13,12.77-21,31.36-29.41,51.11-.5,1.17-5.57,14.52-7,22.86-1.66,9.5-.2,17,4.33,22.41,5.28,6.28,14.33,9.34,27.64,9.34,14.38,0,25-3.36,37.4-7.24l2.15-.68,8.44-29.07-5.19,2.17c-16.09,6.71-23.37,8-31.19,8-4.55,0-7.56-1.09-8.95-3.22-3.15-4.85,1.08-15.28,4-21.87h49.37l1.8-.06.7-1.63C658.31,81.55,663,70.64,660.49,59.94ZM625,66.15c3,0,4.86.61,5.65,1.81,2.26,3.42-1.75,13.29-5.64,22.44H603.35C608.42,78.35,614.45,66.15,625,66.15Z"/><polygon class="cls-2" points="66.97 228.07 118.88 106.73 136.6 106.73 144.66 87.89 70.57 87.89 62.51 106.73 80.02 106.73 27.94 228.49 10.42 228.49 2.27 247.54 76.37 247.54 84.7 228.07 66.97 228.07"/><path class="cls-2" d="M143.46,197.43c-1.75-2.65-5-4-9.58-4a22.24,22.24,0,0,0-11.53,3.8l1.2-2.81H106L83.25,247.54h18.58l14.4-33.64c2.79-2.06,7.56-2.5,7-1.27l-14.93,34.91h18.58L142.55,211C143.71,208.26,146.42,201.92,143.46,197.43Z"/><path class="cls-3" d="M186.71,176.06l-8.86,20.73c-1.69-2-4.58-3.71-9.63-3.71-6.89,0-13.21,3.67-17.3,10-3,4.6-5.33,10-9.18,19a88.77,88.77,0,0,0-4.45,12c-.77,3.1-1.16,7.46,1.36,10.68,1.8,2.3,4.64,3.47,8.46,3.47a20,20,0,0,0,10.91-3l-1,2.3h17.77l30.57-71.48Zm-30.33,55c.45-1.63,2.92-5.91,5.38-11.65,3.47-8.13,4.94-11,7.78-11a4,4,0,0,1,2.74,1.34L164.08,229C162.51,230.1,156.18,231.82,156.38,231.08Z"/><path class="cls-4" d="M229.19,194.43l-14.45,33.8a19.39,19.39,0,0,1-4.55,2.91c-.77.35-3.11-.41-2.48-1.9l14.9-34.81H204.12l-16.18,37.83c-.86,2-3.46,8.09-.54,12.5,1.73,2.62,4.89,4,9.4,4a21.81,21.81,0,0,0,11.78-3.57l-1,2.4H225l22.72-53.11Z"/><path class="cls-2" d="M302.25,232.16a28.56,28.56,0,0,1-5.52,0L306.67,209h9.2l6.23-14.57h-9.2l7.4-17.29H301.9l-7.4,17.29h-7.12L285,200l-.64-.86c-2.13-2.86-7.56-6-14.43-6a24.34,24.34,0,0,0-11.82,2.61,27.28,27.28,0,0,0-13.38,13.8c-4.51,10.53,3.21,16.28,10.77,20.67.91.54-1.34,4-3.86,4-3.11,0-4.08-1.51-5.41-4l-1.65-3.05-13.77,12.68,1.55,2c1.64,2.09,5.5,7,15.63,7,6.23,0,19.52-3.52,25.22-16.85,5.4-12.64-3.64-17.71-8.53-20.46-.88-.47-2.71-1.45-2.85-2.05.55-1.29,2-2.06,4-2.06s2.93.41,5.77,3.12l1.8,1.73L283.72,203l-2.57,6h7.12l-9.52,22.27c-2.28,5.32-2.42,9.36-.44,12.37,2.93,4.44,9.37,4.44,12.12,4.44a50.36,50.36,0,0,0,6.9-.59l2.85-.33,6.6-15.44Z"/><path class="cls-2" d="M348.92,215l9.42-22-4.25.16a21.22,21.22,0,0,0-12.31,4.41l1.34-3.14H325.17l-22.72,53.11h18.76l12.42-29c5.84-3.47,8.62-3.47,13.52-3.47Z"/><polygon class="cls-2" points="360.67 193.47 337.54 247.54 355.85 247.54 378.99 193.47 360.67 193.47"/><polygon class="cls-2" points="361.83 190.78 380.13 190.78 387.15 174.37 368.85 174.37 361.83 190.78"/><path class="cls-2" d="M400.83,230.64c-6.86,2.79-9.94,3.32-13.21,3.32-1.44,0-2.48-.28-2.78-.75-.8-1.22.43-4.65,1.39-6.92h22.65l.7-1.64c5.5-12.86,7.55-17.67,6.26-22.75-1.4-5.85-5.95-8.82-13.53-8.82s-14.24,2.53-19.37,7.5c-5.93,5.71-9.39,13.82-13.06,22.39a66.67,66.67,0,0,0-3.09,10.18c-.74,4.46,0,8.07,2.28,10.72,2.66,3.14,7.09,4.66,13.54,4.66s11.41-1.47,17.29-3.27l1.4-.43L406,228.56Zm-2.13-24.16a4.44,4.44,0,0,1,1.3.13c.49,1-1,4.48-2.11,7.18h-6.3C393.63,209.36,395.64,206.48,398.7,206.48Z"/><path class="cls-2" d="M440.81,207.38c1.94,0,2.93.41,5.77,3.12l1.8,1.73,12.46-11.14-1.47-2c-2.13-2.86-7.56-6-14.43-6a24.29,24.29,0,0,0-11.81,2.61,27.32,27.32,0,0,0-13.4,13.8c-4.5,10.53,3.74,15,11.29,19.41.92.55-1.85,5.24-4.37,5.24-3.11,0-4.08-1.51-5.41-4l-1.65-3.05-13.77,12.68,1.55,2c1.64,2.09,5.5,7,15.63,7,6.23,0,19.52-3.52,25.22-16.85,5.4-12.64-3.64-17.71-8.53-20.46-.88-.47-2.71-1.45-2.85-2.05C437.38,208.15,438.87,207.38,440.81,207.38Z"/><polygon class="cls-2" points="519.79 176.06 499.29 176.06 468.71 247.54 518.03 247.54 525.61 229.82 496.8 229.82 519.79 176.06"/><path class="cls-2" d="M555.59,209h8.9l6.23-14.57h-8.9l7.39-17.29h-18l-7.39,17.29h-6.9L530.69,209h6.89l-9.52,22.27c-2.31,5.39-2.46,9.47-.48,12.47,2.86,4.34,9,4.34,11.69,4.34a47.71,47.71,0,0,0,6.72-.59l2.8-.34,6.6-15.44-4.54.46a50.65,50.65,0,0,1-5.14.25C544.77,232.42,555.59,209,555.59,209Z"/><path class="cls-3" d="M608.16,176.06l-8.81,20.62c-1.64-2-4.43-3.6-9.26-3.6-6.72,0-12.9,3.67-17,10.06-3,4.59-5.28,10-9.14,19a89.59,89.59,0,0,0-4.46,11.94c-.81,3.14-1.24,7.56,1.26,10.78,1.75,2.25,4.5,3.39,8.16,3.39a19.07,19.07,0,0,0,10.42-2.88l-.92,2.16h17.39l30.57-71.48Zm-29,54.2c.46-1.63,1.94-5.09,4.4-10.83,3.25-7.6,4.81-11,7.63-11a3.66,3.66,0,0,1,2.52,1.3L585.53,229C584,230.11,579,231.7,579,231.7A8.2,8.2,0,0,1,579.2,230.26Z"/><polygon class="cls-2" points="604.2 247.54 623.42 247.54 631.78 228.01 612.55 228.01 604.2 247.54"/></g></g></svg>